<svg width="26" height="26" viewBox="0 0 26 26" fill="none" xmlns="http://www.w3.org/2000/svg">
<mask id="mask0_71_2567" style="mask-type:alpha" maskUnits="userSpaceOnUse" x="0" y="0" width="26" height="26">
<rect width="26" height="26" fill="#D9D9D9"/>
</mask>
<g mask="url(#mask0_71_2567)">
<path d="M5.75039 23.2917C5.21017 23.2917 4.74867 23.1005 4.36589 22.7179C3.98329 22.3351 3.79199 21.8736 3.79199 21.3334V9.00014C3.79199 8.45992 3.98329 7.99842 4.36589 7.61564C4.74867 7.23305 5.21017 7.04175 5.75039 7.04175H8.12533C8.12533 5.68903 8.59964 4.53834 9.54828 3.58971C10.4969 2.64107 11.6476 2.16675 13.0003 2.16675C14.353 2.16675 15.5037 2.64107 16.4524 3.58971C17.401 4.53834 17.8753 5.68903 17.8753 7.04175H20.2503C20.7905 7.04175 21.252 7.23305 21.6348 7.61564C22.0174 7.99842 22.2087 8.45992 22.2087 9.00014V21.3334C22.2087 21.8736 22.0174 22.3351 21.6348 22.7179C21.252 23.1005 20.7905 23.2917 20.2503 23.2917H5.75039ZM5.75039 21.6667H20.2503C20.3337 21.6667 20.4101 21.632 20.4794 21.5625C20.5489 21.4931 20.5837 21.4168 20.5837 21.3334V9.00014C20.5837 8.91673 20.5489 8.84035 20.4794 8.77102C20.4101 8.7015 20.3337 8.66675 20.2503 8.66675H5.75039C5.66697 8.66675 5.5906 8.7015 5.52126 8.77102C5.45175 8.84035 5.41699 8.91673 5.41699 9.00014V21.3334C5.41699 21.4168 5.45175 21.4931 5.52126 21.5625C5.5906 21.632 5.66697 21.6667 5.75039 21.6667ZM13.0003 14.6251C14.353 14.6251 15.5037 14.1508 16.4524 13.2021C17.401 12.2535 17.8753 11.1028 17.8753 9.75008H16.2503C16.2503 10.6529 15.9344 11.4202 15.3024 12.0522C14.6705 12.6841 13.9031 13.0001 13.0003 13.0001C12.0975 13.0001 11.3302 12.6841 10.6982 12.0522C10.0663 11.4202 9.75033 10.6529 9.75033 9.75008H8.12533C8.12533 11.1028 8.59964 12.2535 9.54828 13.2021C10.4969 14.1508 11.6476 14.6251 13.0003 14.6251ZM9.75033 7.04175H16.2503C16.2503 6.13897 15.9344 5.37161 15.3024 4.73966C14.6705 4.10772 13.9031 3.79175 13.0003 3.79175C12.0975 3.79175 11.3302 4.10772 10.6982 4.73966C10.0663 5.37161 9.75033 6.13897 9.75033 7.04175Z" fill="#333333"/>
</g>
</svg>
