<svg width="26" height="26" viewBox="0 0 26 26" fill="none" xmlns="http://www.w3.org/2000/svg">
<mask id="mask0_71_2561" style="mask-type:alpha" maskUnits="userSpaceOnUse" x="0" y="0" width="26" height="26">
<rect width="26" height="26" fill="#D9D9D9"/>
</mask>
<g mask="url(#mask0_71_2561)">
<path d="M13.0021 12.8539C13.5411 12.8539 14.0019 12.662 14.3845 12.2781C14.7672 11.8943 14.9586 11.4329 14.9586 10.8939C14.9586 10.355 14.7667 9.89409 14.3828 9.51132C13.999 9.12872 13.5375 8.93742 12.9983 8.93742C12.4594 8.93742 11.9986 9.12935 11.616 9.51321C11.2332 9.89707 11.0418 10.3586 11.0418 10.8977C11.0418 11.4367 11.2338 11.8974 11.6176 12.28C12.0015 12.6626 12.463 12.8539 13.0021 12.8539ZM13.0002 21.1395C15.1196 19.2423 16.7414 17.4224 17.8658 15.6801C18.9901 13.9377 19.5522 12.4117 19.5522 11.1019C19.5522 9.127 18.9248 7.50345 17.67 6.23125C16.4151 4.95906 14.8585 4.32296 13.0002 4.32296C11.142 4.32296 9.58539 4.95906 8.33053 6.23125C7.07567 7.50345 6.44824 9.127 6.44824 11.1019C6.44824 12.4117 7.0104 13.9377 8.13472 15.6801C9.25904 17.4224 10.8809 19.2423 13.0002 21.1395ZM13.0002 23.3019C10.2739 20.9395 8.22942 18.741 6.86695 16.7063C5.50448 14.6714 4.82324 12.8033 4.82324 11.1019C4.82324 8.60195 5.63186 6.57801 7.2491 5.03011C8.86651 3.4822 10.7836 2.70825 13.0002 2.70825C15.2169 2.70825 17.134 3.4822 18.7514 5.03011C20.3686 6.57801 21.1772 8.60195 21.1772 11.1019C21.1772 12.8033 20.496 14.6714 19.1335 16.7063C17.7711 18.741 15.7266 20.9395 13.0002 23.3019Z" fill="#333333"/>
</g>
</svg>
