<svg width="26" height="26" viewBox="0 0 26 26" fill="none" xmlns="http://www.w3.org/2000/svg">
<mask id="mask0_71_2558" style="mask-type:alpha" maskUnits="userSpaceOnUse" x="0" y="0" width="26" height="26">
<rect width="26" height="26" fill="#D9D9D9"/>
</mask>
<g mask="url(#mask0_71_2558)">
<path d="M21.1706 22.2917L14.3665 15.4873C13.8248 15.9345 13.2019 16.2845 12.4977 16.5373C11.7935 16.7901 11.0651 16.9165 10.3124 16.9165C8.46076 16.9165 6.89372 16.2754 5.61123 14.9933C4.32874 13.7111 3.6875 12.1445 3.6875 10.2932C3.6875 8.44217 4.32856 6.87495 5.61069 5.59156C6.89281 4.30835 8.45949 3.66675 10.3107 3.66675C12.1618 3.66675 13.729 4.30799 15.0124 5.59048C16.2956 6.87296 16.9372 8.44001 16.9372 10.2916C16.9372 11.0653 16.8074 11.8042 16.5478 12.5084C16.2879 13.2125 15.9414 13.825 15.508 14.3457L22.3122 21.1499L21.1706 22.2917ZM10.3124 15.2917C11.7082 15.2917 12.8905 14.8073 13.8592 13.8384C14.828 12.8698 15.3125 11.6875 15.3125 10.2916C15.3125 8.89573 14.828 7.71345 13.8592 6.74477C12.8905 5.77591 11.7082 5.29148 10.3124 5.29148C8.91648 5.29148 7.7342 5.77591 6.76552 6.74477C5.79666 7.71345 5.31223 8.89573 5.31223 10.2916C5.31223 11.6875 5.79666 12.8698 6.76552 13.8384C7.7342 14.8073 8.91648 15.2917 10.3124 15.2917Z" fill="#333333"/>
</g>
</svg>
