<svg width="27" height="27" viewBox="0 0 27 27" fill="none" xmlns="http://www.w3.org/2000/svg">
<mask id="mask0_1_22" style="mask-type:alpha" maskUnits="userSpaceOnUse" x="0" y="0" width="27" height="27">
<rect x="0.296021" y="0.673264" width="26" height="26" fill="#D9D9D9"/>
</mask>
<g mask="url(#mask0_1_22)">
<path d="M13 13.3333C11.7167 13.3333 10.6181 12.8764 9.70433 11.9627C8.79033 11.0487 8.33333 9.95 8.33333 8.66667C8.33333 7.38333 8.79033 6.28478 9.70433 5.371C10.6181 4.457 11.7167 4 13 4C14.2833 4 15.3819 4.457 16.2957 5.371C17.2097 6.28478 17.6667 7.38333 17.6667 8.66667C17.6667 9.95 17.2097 11.0487 16.2957 11.9627C15.3819 12.8764 14.2833 13.3333 13 13.3333ZM3 23.4873V20.523C3 19.8701 3.17733 19.2654 3.532 18.709C3.88667 18.1526 4.36067 17.7248 4.954 17.4257C6.27178 16.7797 7.60122 16.2951 8.94233 15.972C10.2834 15.6489 11.636 15.4873 13 15.4873C14.364 15.4873 15.7166 15.6489 17.0577 15.972C18.3988 16.2951 19.7282 16.7797 21.046 17.4257C21.6393 17.7248 22.1133 18.1526 22.468 18.709C22.8227 19.2654 23 19.8701 23 20.523V23.4873H3ZM5 21.4873H21V20.523C21 20.253 20.9218 20.003 20.7653 19.773C20.6089 19.5432 20.3966 19.3557 20.1283 19.2103C18.9794 18.6446 17.8081 18.2159 16.6143 17.9243C15.4203 17.633 14.2156 17.4873 13 17.4873C11.7844 17.4873 10.5797 17.633 9.38567 17.9243C8.19189 18.2159 7.02056 18.6446 5.87167 19.2103C5.60344 19.3557 5.39111 19.5432 5.23467 19.773C5.07822 20.003 5 20.253 5 20.523V21.4873ZM13 11.3333C13.7333 11.3333 14.3611 11.0722 14.8833 10.55C15.4056 10.0278 15.6667 9.4 15.6667 8.66667C15.6667 7.93333 15.4056 7.30556 14.8833 6.78333C14.3611 6.26111 13.7333 6 13 6C12.2667 6 11.6389 6.26111 11.1167 6.78333C10.5944 7.30556 10.3333 7.93333 10.3333 8.66667C10.3333 9.4 10.5944 10.0278 11.1167 10.55C11.6389 11.0722 12.2667 11.3333 13 11.3333Z" fill="#333333"/>
</g>
</svg>
